<?xml version="1.0" encoding="UTF-8" standalone="no"?>
<!DOCTYPE svg PUBLIC "-//W3C//DTD SVG 1.1//EN" "http://www.w3.org/Graphics/SVG/1.1/DTD/svg11.dtd">
<svg width="100%" height="100%" viewBox="0 0 2278 1467" version="1.1" xmlns="http://www.w3.org/2000/svg" xmlns:xlink="http://www.w3.org/1999/xlink" xml:space="preserve" xmlns:serif="http://www.serif.com/" style="fill-rule:evenodd;clip-rule:evenodd;stroke-linejoin:round;stroke-miterlimit:2;">
    <g id="Artboard1" transform="matrix(1.267668,0,0,0.852411,1057.235392,-48.587449)">
        <rect x="-834" y="57" width="1797" height="1721" style="fill:none;"/>
        <g transform="matrix(0.78885,0,0,1.173142,-3725.923617,-3858.949557)">
            <g transform="matrix(1,0,0,1,1733,424)">
                <path d="M2286,3973L2104,4002L2028,3913L2267,3573L2474,3368L2739,3099L3229,3070L3607,3176L3923,3375L4116,3583L3915,3904L3423,4146L2674,4105L2286,3973ZM2563,4059L2706,4073L3387,4119L3876,3918L3965,3759L4023,3549L3840,3362L3273,3109L2753,3141L2383,3492L2304,3811L2563,4059Z" style="fill:rgb(190,100,100);"/>
            </g>
            <path d="M3857,4399L3796,4319L3900,4237L4002,4372L3857,4399Z" style="fill:rgb(214,157,158);"/>
            <path d="M3794,4314L3974,4061L4066,3987L3954,4204L3995,4345L3915,4252L3794,4314Z" style="fill:rgb(159,81,82);"/>
            <path d="M5759,3981L5708,4177L5812,4019L5759,3981Z" style="fill:rgb(159,81,82);"/>
            <path d="M4154,4354L3997,4220L3995,4151L4094,3975L4075,4194L4154,4354Z" style="fill:rgb(214,157,158);"/>
            <path d="M5577,3788L5816,4018L5841,4004L5680,3841L5577,3788Z" style="fill:rgb(214,157,158);"/>
            <path d="M5809,4030L5604,4342L5122,4543L4935,4558L5156,4572L5651,4327L5848,4010L5809,4030Z" style="fill:rgb(214,157,158);"/>
            <path d="M4036,4389L4042,4307L4232,4462L4036,4389Z" style="fill:rgb(214,157,158);"/>
            <g transform="matrix(1,0,0,1,0,-1)">
                <path d="M3927,4386L3864,4341L3955,4342L4133,4383L4027,4372L3927,4386Z" style="fill:rgb(215,215,215);"/>
            </g>
            <g transform="matrix(0.999439,-0.033501,0.033501,0.999439,-130.66429,196.987842)">
                <path d="M5796,4000L5776,4076L5849,4008L5823,3979L5796,4000Z" style="fill:rgb(215,215,215);"/>
            </g>
        </g>
    </g>
</svg>
