<?xml version="1.0" encoding="UTF-8" standalone="no"?>
<!DOCTYPE svg PUBLIC "-//W3C//DTD SVG 1.1//EN" "http://www.w3.org/Graphics/SVG/1.1/DTD/svg11.dtd">
<svg width="100%" height="100%" viewBox="0 0 2278 1467" version="1.1" xmlns="http://www.w3.org/2000/svg" xmlns:xlink="http://www.w3.org/1999/xlink" xml:space="preserve" xmlns:serif="http://www.serif.com/" style="fill-rule:evenodd;clip-rule:evenodd;stroke-linejoin:round;stroke-miterlimit:2;">
    <g id="Artboard1" transform="matrix(1.267668,0,0,0.852411,1057.235392,-48.587449)">
        <rect x="-834" y="57" width="1797" height="1721" style="fill:none;"/>
        <g transform="matrix(0.78885,0,0,1.173142,-3729.867867,-3776.829584)">
            <g transform="matrix(1,0,0,1,1,-8)">
                <g transform="matrix(1,0,0,1,1177,2409)">
                    <path d="M2859,1997L2651,2033L2577,1937L2817,1608L3311,1120L3801,1085L4194,1208L4499,1400L4688,1600L4490,1914L3983,2168L3235,2124L2859,1997Z" style="fill:rgb(189,189,189);"/>
                </g>
                <path d="M4321,3760L4718,3538L4995.05,3524.931L5590,3789L5625.829,4181.755L5187,3965L4321,3760Z" style="fill:rgb(157,157,157);"/>
                <g transform="matrix(1,0,0,1,-69,26)">
                    <path d="M4365,4463L4114,4233L4356,3805L4535,4245L4822,4512L4365,4463Z" style="fill:rgb(157,157,157);"/>
                </g>
                <path d="M5495,3720L5598,4136L5454,4305L5269,4496L5612,4346L5783,4037L5697,3845L5495,3720Z" style="fill:rgb(130,130,130);"/>
                <path d="M5763,3943L5691.481,4025.458L5606,4064L5630,4313L5768,4114L5794.619,3960.814L5763,3943Z" style="fill:rgb(99,99,99);"/>
                <path d="M4090,4349L3946,4249L4108,3905L4500,3534L4745,3528L4410,3760L4321,4100L4090,4349" style="fill:rgb(130,130,130);"/>
                <g transform="matrix(1,0,0,1,-26,13)">
                    <path d="M4384,4452L4183,4295L4408,4306L4554.492,4398.414L4811,4495L4384,4452Z" style="fill:rgb(216,216,216);"/>
                </g>
                <g transform="matrix(1,0,0,1,-29,5)">
                    <path d="M5001,4504L5228,4430L5337,4292L5585,4252L5627,4318L5142,4525L5001,4504Z" style="fill:rgb(216,216,216);"/>
                </g>
                <g transform="matrix(0.992775,-0.119989,0.119989,0.992775,-292.045823,678.569472)">
                    <path d="M5010,3587L5221,3684L5369,3772L5227,3856L5010,3587Z" style="fill:rgb(216,216,216);"/>
                </g>
                <g transform="matrix(1,0,0,1,39,-12)">
                    <path d="M4269,3812L4373,3861L4559,3608L4429,3656L4269,3812Z" style="fill:rgb(216,216,216);"/>
                </g>
            </g>
        </g>
    </g>
</svg>
