<?xml version="1.0" encoding="UTF-8" standalone="no"?>
<!DOCTYPE svg PUBLIC "-//W3C//DTD SVG 1.1//EN" "http://www.w3.org/Graphics/SVG/1.1/DTD/svg11.dtd">
<svg width="100%" height="100%" viewBox="0 0 2278 1467" version="1.1" xmlns="http://www.w3.org/2000/svg" xmlns:xlink="http://www.w3.org/1999/xlink" xml:space="preserve" xmlns:serif="http://www.serif.com/" style="fill-rule:evenodd;clip-rule:evenodd;stroke-linejoin:round;stroke-miterlimit:2;">
    <g id="Artboard1" transform="matrix(1.267668,0,0,0.852411,1057.235392,-48.587449)">
        <rect x="-834" y="57" width="1797" height="1721" style="fill:none;"/>
        <g transform="matrix(0.78885,0,0,1.173142,-3714.879719,-3807.331288)">
            <g transform="matrix(1,0,0,1,1,-8)">
                <g transform="matrix(1,0,0,1,1177,2409)">
                    <path d="M2859,1997L2651,2033L2577,1937L2817,1608L3311,1120L3801,1085L4194,1208L4499,1400L4688,1600L4490,1914L3983,2168L3235,2124L2859,1997Z" style="fill:rgb(189,189,189);"/>
                </g>
                <path d="M4321,3760L4718,3538L4995.05,3524.931L5590,3789L5625.829,4181.755L5187,3965L4321,3760Z" style="fill:rgb(157,157,157);"/>
                <g transform="matrix(1,0,0,1,-69,26)">
                    <path d="M4365,4463L4114,4233L4356,3805L4535,4245L4822,4512L4365,4463Z" style="fill:rgb(157,157,157);"/>
                </g>
                <path d="M5495,3720L5598,4136L5454,4305L5269,4496L5612,4346L5783,4037L5697,3845L5495,3720Z" style="fill:rgb(130,130,130);"/>
                <path d="M5763,3943L5691.481,4025.458L5606,4064L5630,4313L5768,4114L5794.619,3960.814L5763,3943Z" style="fill:rgb(99,99,99);"/>
                <path d="M4090,4349L3946,4249L4108,3905L4500,3534L4745,3528L4410,3760L4321,4100L4090,4349" style="fill:rgb(130,130,130);"/>
                <g transform="matrix(1,0,0,1,-26,13)">
                    <path d="M4384,4452L4183,4295L4408,4306L4554.492,4398.414L4811,4495L4384,4452Z" style="fill:rgb(216,216,216);"/>
                </g>
                <g transform="matrix(1,0,0,1,-29,5)">
                    <path d="M5001,4504L5228,4430L5337,4292L5585,4252L5627,4318L5142,4525L5001,4504Z" style="fill:rgb(216,216,216);"/>
                </g>
                <g transform="matrix(0.992775,-0.119989,0.119989,0.992775,-292.045823,678.569472)">
                    <path d="M5010,3587L5221,3684L5369,3772L5227,3856L5010,3587Z" style="fill:rgb(216,216,216);"/>
                </g>
                <g transform="matrix(1,0,0,1,39,-12)">
                    <path d="M4269,3812L4373,3861L4559,3608L4429,3656L4269,3812Z" style="fill:rgb(216,216,216);"/>
                </g>
            </g>
        </g>
        <g transform="matrix(0.78885,0,0,1.173142,-3710.14662,-3814.370143)">
            <g transform="matrix(1,0,0,1,1733,424)">
                <path d="M2286,3973L2104,4002L2028,3913L2267,3573L2474,3368L2739,3099L3229,3070L3607,3176L3923,3375L4116,3583L3915,3904L3423,4146L2674,4105L2286,3973ZM2563,4059L2706,4073L3387,4119L3876,3918L3965,3759L4023,3549L3840,3362L3273,3109L2753,3141L2383,3492L2304,3811L2563,4059Z" style="fill:rgb(190,100,100);"/>
            </g>
            <path d="M3857,4399L3796,4319L3900,4237L4002,4372L3857,4399Z" style="fill:rgb(214,157,158);"/>
            <path d="M3794,4314L3974,4061L4066,3987L3954,4204L3995,4345L3915,4252L3794,4314Z" style="fill:rgb(159,81,82);"/>
            <path d="M5759,3981L5708,4177L5812,4019L5759,3981Z" style="fill:rgb(159,81,82);"/>
            <path d="M4154,4354L3997,4220L3995,4151L4094,3975L4075,4194L4154,4354Z" style="fill:rgb(214,157,158);"/>
            <path d="M5577,3788L5816,4018L5841,4004L5680,3841L5577,3788Z" style="fill:rgb(214,157,158);"/>
            <path d="M5809,4030L5604,4342L5122,4543L4935,4558L5156,4572L5651,4327L5848,4010L5809,4030Z" style="fill:rgb(214,157,158);"/>
            <path d="M4036,4389L4042,4307L4232,4462L4036,4389Z" style="fill:rgb(214,157,158);"/>
            <g transform="matrix(1,0,0,1,0,-1)">
                <path d="M3927,4386L3864,4341L3955,4342L4133,4383L4027,4372L3927,4386Z" style="fill:rgb(215,215,215);"/>
            </g>
            <g transform="matrix(0.999439,-0.033501,0.033501,0.999439,-130.66429,196.987842)">
                <path d="M5796,4000L5776,4076L5849,4008L5823,3979L5796,4000Z" style="fill:rgb(215,215,215);"/>
            </g>
        </g>
    </g>
</svg>
